<?xml version="1.0" encoding="utf-8"?>
<!-- Generator: Adobe Illustrator 27.7.0, SVG Export Plug-In . SVG Version: 6.00 Build 0)  -->
<svg version="1.1" id="Layer_2_00000012456246294128554350000011022936491636874883_"
	 xmlns="http://www.w3.org/2000/svg" xmlns:xlink="http://www.w3.org/1999/xlink" x="0px" y="0px" viewBox="0 0 1249.8 613.4"
	 style="enable-background:new 0 0 1249.8 613.4;" xml:space="preserve">
<style type="text/css">
	.st0{fill:#FFFFFF;}
</style>
<polyline points="1135.5,566.2 200.6,605.2 263.9,448.1 190.6,363.2 90.5,418.4 86.6,306.2 8.6,359.2 104.4,234.5 127.6,315.4 
	199,266.3 278.1,289.6 300.3,204.8 769.6,104.8 760.6,136.2 1238.9,11.2 "/>
<g>
	<polygon class="st0" points="309.6,223.2 728.6,166.2 686.6,223.2 1166.9,105.5 1144.5,311 1086.2,411.6 1131.3,384.1 
		1100.4,511.2 264.6,566.2 300.6,434.2 184.6,339.2 111.6,357.2 98.6,289.2 60.6,311.2 96.6,265.2 126.6,326.2 195.6,293.2 
		300.6,319.2 	"/>
</g>
<g>
	<polyline points="102.6,289.2 123.6,334.2 200.6,305.2 311.6,332.2 319.6,245.2 686.6,189.2 676.6,236.2 1128.6,171.7 1111.8,346 
		1061.3,433.3 1106.6,409.2 1074.9,506.5 289,556.1 309.6,423.2 187.6,331.2 118.6,350.2 	"/>
</g>
</svg>
