<?xml version="1.0" encoding="utf-8"?>
<!-- Generator: Adobe Illustrator 27.7.0, SVG Export Plug-In . SVG Version: 6.00 Build 0)  -->
<svg version="1.1" id="Layer_2" xmlns="http://www.w3.org/2000/svg" xmlns:xlink="http://www.w3.org/1999/xlink" x="0px" y="0px"
	 viewBox="0 0 1029 834" style="enable-background:new 0 0 1029 834;" xml:space="preserve">
<style type="text/css">
	.st0{fill:#FFFFFF;}
</style>
<polyline points="856.9,721 222,760 295.3,502.9 222,418 121.9,473.2 118,361 40,414 135.8,289.3 159,370.2 230.4,321.1 
	309.5,344.4 351.7,229.6 641,129.6 632,161 980.3,36 "/>
<g>
	<polygon class="st0" points="361,248 600,191 558,248 918.3,130.3 875.9,365.8 817.6,466.4 862.7,438.9 821.8,666 286,721 332,489 
		216,394 143,412 130,344 92,366 128,320 158,381 227,348 332,374 	"/>
</g>
<g>
	<polyline points="134,344 155,389 232,360 343,387 371,270 558,214 548,261 880,196.5 843.2,400.8 792.7,488.1 838,464 
		796.3,661.3 310.4,710.9 341,478 219,386 150,405 	"/>
</g>
<g>
</g>
<g>
</g>
<g>
</g>
<g>
</g>
<g>
</g>
<g>
</g>
<g>
</g>
<g>
</g>
<g>
</g>
<g>
</g>
<g>
</g>
<g>
</g>
<g>
</g>
<g>
</g>
<g>
</g>
</svg>
